<svg class="mr-4 rtl:ml-4 rtl:mr-0 bg-primary h-10 md:h-12 md:p-3 md:w-12 p-2 rounded-full text-white w-10" data-icon="tabler:brand-tailwind" height="1em" viewBox="0 0 24 24" width="1em"><symbol id="ai:tabler:brand-tailwind"><path d="M11.667 6Q7.933 6 7 9.667q1.4-1.834 3.267-1.375c.71.174 1.217.68 1.778 1.24c.916.912 2 1.968 4.288 1.968q3.734 0 4.667-3.667q-1.4 1.834-3.267 1.375c-.71-.174-1.217-.68-1.778-1.24C15.039 7.056 13.98 6 11.667 6m-4 6.5Q3.933 12.5 3 16.167q1.4-1.834 3.267-1.375c.71.174 1.217.68 1.778 1.24c.916.912 1.975 1.968 4.288 1.968q3.734 0 4.667-3.667q-1.4 1.834-3.267 1.375c-.71-.174-1.217-.68-1.778-1.24c-.916-.912-1.975-1.968-4.288-1.968" fill="none" stroke="currentColor" stroke-linecap="round" stroke-linejoin="round" stroke-width="2"></path></symbol></svg>